<svg version="1" xmlns="http://www.w3.org/2000/svg" width="853.333" height="853.333" viewBox="0 0 640.000000 640.000000"><path d="M169 83.7c-3.5 6-7.3 12.6-8.5 14.8-5.6 9.7-16.9 29.3-18.6 32-1 1.6-2.2 3.7-2.6 4.5-.4.8-3.8 6.9-7.6 13.5-3.9 6.6-8.1 14-9.5 16.5-1.4 2.4-4.9 8.4-7.8 13.3-3 4.9-5.4 9.3-5.4 9.8 0 .4-.6 1.4-1.3 2.1-1.1 1.2-5.9 9.6-8.2 14.5-.5 1.3-1.3 2.3-1.7 2.3-.5 0-.8.7-.8 1.5s-.4 1.5-.8 1.5-1.3 1.2-1.9 2.7c-.7 1.6-4.8 8.9-9.3 16.3-4.4 7.4-8.9 15.3-10 17.5-1.2 2.2-2.9 5.3-3.9 7-4.3 7.1-32.1 55.5-32.1 56 0 .3 13.9.5 30.9.5h30.9l4.3-7.8c2.4-4.2 5.1-9.1 6.1-10.7.9-1.7 2.7-4.9 3.9-7.3 1.3-2.3 2.6-4.2 3.1-4.2.4 0 .8-.6.8-1.3 0-.6 2.3-4.9 5-9.5 2.8-4.6 5-8.5 5-8.6 0-.3 9.3-16.3 12-20.6.5-.8 2.3-4.2 4.1-7.5 1.7-3.3 4.5-7.9 6-10.2 1.6-2.3 2.9-4.4 2.9-4.7 0-.4 2-3.9 4.4-7.9 4.6-7.6 10.9-18.5 15.9-27.7 1.6-3 3.8-6.6 4.7-8 .9-1.4 4.5-7.6 8.1-13.8 8-14.2 10.3-18.1 14.8-25.7l3.6-6 105.6-.3 105.6-.2 6.4 11.2c3.5 6.1 7.4 13 8.7 15.2 1.3 2.3 4.1 7 6.2 10.6 2.1 3.6 4.7 8.2 5.9 10.3 3 5.3 15.1 26.3 25.3 43.7 4.6 8 12.4 21.5 17.3 30 4.8 8.5 11.7 20.4 15.3 26.5 3.6 6 7.4 12.6 8.5 14.5 1.1 1.9 4 7.1 6.5 11.4l4.6 7.9-3.1 5.6c-1.6 3.1-6.5 11.7-10.8 19.1-4.2 7.4-8.6 15.1-9.7 17-1.1 1.9-6.3 10.9-11.6 20-5.2 9.1-16.2 28-24.2 42-13.4 23.2-19.3 33.4-39.1 67.5l-6.4 11-105.6.3-105.6.2-1.9 3.7c-1 2-4 7.1-6.5 11.2-2.5 4.2-5.9 10.1-7.6 13.1-1.6 3-5.5 9.9-8.7 15.2-3.1 5.4-5.6 10-5.6 10.3 0 .3 61.4.5 136.4.5h136.4l2.5-4.3c1.4-2.3 3.4-5.8 4.5-7.7 1-1.9 4.3-7.6 7.2-12.5 2.9-5 6.4-11 7.8-13.5 1.3-2.5 6.3-11 10.9-19 16.3-27.7 19.1-32.5 21.7-37.5 1.5-2.8 3.6-6.4 4.5-8 2.7-4.4 15.7-26.7 21.3-36.5 2.7-4.7 5.3-9.2 5.8-10 .5-.8 3.5-6 6.6-11.5 7.8-13.7 31.9-55.4 37.8-65.5 6.4-11 6.4-9.6.8-19.1-4.5-7.7-21.1-36.3-25.2-43.4-.9-1.7-3.2-5.7-5-9-1.8-3.3-3.6-6.5-4-7-.7-1-16.4-28-21.8-37.5-1.4-2.5-3.3-5.9-4.3-7.5-1-1.7-2.6-4.4-3.5-6-.9-1.7-8.2-14.2-16.1-27.9-8-13.7-15.3-26.3-16.2-28-2.3-4-13.8-24.2-16.1-28.1-.9-1.7-4.8-8.2-8.5-14.5-3.7-6.3-7.7-13.2-8.9-15.2l-2.1-3.8H175.2L169 83.7z"/><path d="M307.9 199.2c-1.9 1.2-9.2 5.5-16.4 9.6-16.8 9.7-43 24.8-52.5 30.3-4.1 2.3-11.8 6.8-17 9.8l-9.5 5.6-.2 58-.3 58 9.1 5.2c5 2.9 9.5 5.3 10 5.3s.9.4.9.9.8 1.1 1.8 1.4c.9.3 4 1.9 6.7 3.5 2.8 1.6 9.1 5.3 14 8.2 5 2.9 12.2 7.1 16 9.3 3.9 2.1 9.8 5.7 13.2 7.8 3.4 2.2 6.6 3.9 7.1 3.9.4 0 4.1 2.1 8.2 4.6 11 6.8 13 7.7 14.3 6.6.7-.6 3-2 5.2-3.2 6-3.4 46-26.3 58-33.2 3.3-2 12.4-7.2 20.3-11.8 7.9-4.5 14.6-8.8 14.8-9.4.2-.6.3-13.8.2-29.2l-.3-28.2-13.5 7.7c-7.4 4.3-21.1 12.2-30.5 17.6-24.4 14.1-28.6 16.5-32.5 18.7-1.9 1.1-6 3.5-9 5.3-3 1.8-7.6 4.4-10.1 5.8l-4.6 2.5-4.4-2.7c-4.8-3-15.6-9.4-32.2-19.1-5.9-3.5-10.9-6.6-11.2-7-.2-.4 1.3-1.5 3.3-2.6 2-1 13-7.3 24.4-13.9l20.7-12 .3-28.7.3-28.7 7.3 4.5c4 2.4 7.4 4.4 7.6 4.4.2 0 3.7 2 7.7 4.5s7.8 4.5 8.4 4.5c.7 0 2 .9 3 2s2.1 2 2.6 2c.4 0 3.5 1.6 6.9 3.5l6.2 3.5 16.9-10c18.8-11.2 26.3-15.5 29.7-17.2 1.2-.6 2.2-1.4 2.2-1.7 0-.3-6.2-4.2-13.8-8.5-7.5-4.4-16.5-9.7-19.9-11.8-3.4-2.1-6.4-3.8-6.6-3.8-.4 0-7.3-3.9-33.2-19-8.8-5.1-18.3-10.5-21.1-12.1l-5-2.8-3.5 2.1z"/></svg>